<svg xmlns="http://www.w3.org/2000/svg" viewBox="0 0 18.62 18.62">
  <defs>
    <style>
      .a {
        fill: #fff;
      }
    </style>
  </defs>
  <title>in</title>
  <g>
    <circle class="a" cx="9.31" cy="9.31" r="9.31"/>
    <path d="M9.31,0a9.31,9.31,0,1,0,9.31,9.31h0A9.31,9.31,0,0,0,9.31,0Zm4.8,13.85-.27.26H12.09V10.95c0-.75,0-1.72-1.05-1.72S9.83,10,9.83,10.89v3.22h-2V7.61H9.75V8.5h0a2.13,2.13,0,0,1,1.91-1.05c2,0,2.42,1.35,2.42,3.1Zm-9.59,0V7.61h2v6.5H4.78Zm1-9.48A1.17,1.17,0,1,1,4.36,5.55,1.17,1.17,0,0,1,5.52,4.37h0Z"/>
  </g>
</svg>
