<svg xmlns="http://www.w3.org/2000/svg" viewBox="0 0 19.44 19.44">
  <defs>
    <style>
      .a {
        fill: #fff;
      }
    </style>
  </defs>
  <title>Asset 1</title>
  <g>
    <circle class="a" cx="9.72" cy="9.72" r="9.72"/>
    <path d="M9.72,0a9.72,9.72,0,1,0,9.72,9.72h0A9.72,9.72,0,0,0,9.72,0ZM15,7v.35A7.7,7.7,0,0,1,3.13,13.86a5.74,5.74,0,0,0,.64,0A5.42,5.42,0,0,0,7.12,12.7a2.71,2.71,0,0,1-2.53-1.88,2.73,2.73,0,0,0,1.22,0A2.7,2.7,0,0,1,3.64,8.17h0a2.69,2.69,0,0,0,1.22.34,2.7,2.7,0,0,1-1.2-2.25A2.65,2.65,0,0,1,4,4.86,7.66,7.66,0,0,0,9.6,7.68a2.77,2.77,0,0,1-.07-.62A2.7,2.7,0,0,1,14.2,5.22a5.58,5.58,0,0,0,1.72-.65,2.72,2.72,0,0,1-1.19,1.5,5.5,5.5,0,0,0,1.55-.43h0A5.46,5.46,0,0,1,15,7Z"/>
  </g>
</svg>
